<svg width="175" height="172" viewBox="0 0 175 172" fill="none" xmlns="http://www.w3.org/2000/svg">
<path d="M152.668 22.582V134.168C152.669 135.284 152.45 136.39 152.023 137.422C151.597 138.453 150.971 139.391 150.182 140.181C149.393 140.97 148.456 141.597 147.425 142.024C146.393 142.452 145.288 142.672 144.171 142.672H21.0269C19.9095 142.673 18.8029 142.454 17.7702 142.027C16.7376 141.6 15.7992 140.974 15.0087 140.184C14.2182 139.394 13.5911 138.456 13.1633 137.424C12.7354 136.392 12.5152 135.285 12.5152 134.168V22.582C12.5152 21.465 12.7355 20.3589 13.1634 19.3271C13.5914 18.2953 14.2186 17.358 15.0092 16.5689C15.7998 15.7797 16.7382 15.1542 17.7708 14.7282C18.8034 14.3021 19.9099 14.0839 21.0269 14.086H144.164C145.28 14.0849 146.386 14.3039 147.417 14.7304C148.449 15.1569 149.387 15.7826 150.176 16.5716C150.966 17.3607 151.593 18.2976 152.02 19.3289C152.448 20.3602 152.668 21.4657 152.668 22.582Z" fill="#E3E4E5"/>
<path d="M152.668 22.582V134.168C152.669 135.285 152.45 136.391 152.023 137.423C151.597 138.455 150.971 139.392 150.181 140.182C149.392 140.972 148.454 141.598 147.423 142.026C146.391 142.453 145.285 142.672 144.168 142.672H21.0276C19.9105 142.672 18.8043 142.453 17.7721 142.026C16.7399 141.599 15.802 140.972 15.0119 140.183C14.2218 139.393 13.5951 138.455 13.1675 137.423C12.7399 136.391 12.5198 135.285 12.5198 134.168V22.582C12.5198 21.4653 12.74 20.3596 13.1677 19.328C13.5954 18.2965 14.2222 17.3593 15.0124 16.5702C15.8026 15.7812 16.7406 15.1556 17.7727 14.7293C18.8049 14.303 19.9109 14.0844 21.0276 14.0859H144.16C145.277 14.0844 146.383 14.303 147.415 14.7293C148.447 15.1556 149.385 15.7812 150.176 16.5702C150.966 17.3593 151.593 18.2965 152.02 19.328C152.448 20.3596 152.668 21.4653 152.668 22.582Z" fill="#E3E4E5"/>
<path d="M152.668 22.582V36.0313H12.5152V22.582C12.5152 21.4648 12.7355 20.3586 13.1634 19.3265C13.5913 18.2945 14.2184 17.3569 15.009 16.5675C15.7995 15.778 16.7379 15.1522 17.7705 14.7257C18.8032 14.2992 19.9097 14.0805 21.0269 14.082H144.16C145.277 14.081 146.383 14.3001 147.415 14.7268C148.447 15.1535 149.385 15.7795 150.175 16.5689C150.965 17.3583 151.592 18.2957 152.02 19.3274C152.447 20.3592 152.668 21.4651 152.668 22.582Z" fill="white"/>
<path d="M153.839 37.2031H11.3434V22.582C11.3465 20.0158 12.3681 17.5558 14.1838 15.7423C15.9994 13.9288 18.4607 12.9102 21.0269 12.9102H144.16C146.725 12.9112 149.186 13.9303 151 15.7437C152.815 17.557 153.836 20.0165 153.839 22.582V37.2031ZM13.6949 34.8594H151.496V22.582C151.494 20.6391 150.721 18.7764 149.347 17.4025C147.973 16.0287 146.11 15.256 144.168 15.2539H21.0269C19.0823 15.2539 17.2172 16.0256 15.841 17.3996C14.4649 18.7735 13.6902 20.6374 13.6871 22.582L13.6949 34.8594Z" fill="white"/>
<path d="M26.0665 28.8984C28.1872 28.8984 29.9064 27.1793 29.9064 25.0586C29.9064 22.9379 28.1872 21.2188 26.0665 21.2188C23.9458 21.2188 22.2267 22.9379 22.2267 25.0586C22.2267 27.1793 23.9458 28.8984 26.0665 28.8984Z" fill="#F9F9F9"/>
<path d="M40.8203 28.8984C42.941 28.8984 44.6602 27.1793 44.6602 25.0586C44.6602 22.9379 42.941 21.2188 40.8203 21.2188C38.6996 21.2188 36.9805 22.9379 36.9805 25.0586C36.9805 27.1793 38.6996 28.8984 40.8203 28.8984Z" fill="#F9F9F9"/>
<path d="M65.9922 58.3789C65.092 59.5258 63.8085 60.3096 62.3771 60.5865C60.9458 60.8635 59.4625 60.615 58.1995 59.8867C56.9366 59.1583 55.9786 57.999 55.5014 56.6214C55.0242 55.2437 55.0598 53.7402 55.6016 52.3867C52.2476 51.5645 48.7446 51.5645 45.3906 52.3867C45.9359 53.7398 45.9743 55.2442 45.4988 56.6233C45.0234 58.0024 44.066 59.1635 42.8027 59.893C41.5395 60.6225 40.0553 60.8715 38.6232 60.594C37.191 60.3165 35.9072 59.5313 35.0078 58.3828C32.6186 60.8752 30.8693 63.9099 29.9102 67.2266C31.3563 67.4292 32.6804 68.1477 33.6386 69.2495C34.5968 70.3514 35.1245 71.7624 35.1245 73.2227C35.1245 74.6829 34.5968 76.0939 33.6386 77.1958C32.6804 78.2977 31.3563 79.0161 29.9102 79.2188C30.883 82.5302 32.6335 85.5611 35.0156 88.0586C35.9141 86.9082 37.1979 86.1211 38.6306 85.8423C40.0634 85.5634 41.5487 85.8115 42.813 86.5409C44.0774 87.2703 45.0356 88.4319 45.5114 89.8119C45.9872 91.1918 45.9485 92.6972 45.4023 94.0508C48.7563 94.8731 52.2593 94.8731 55.6133 94.0508C55.068 92.6978 55.0296 91.1933 55.5051 89.8142C55.9805 88.4351 56.9379 87.274 58.2012 86.5445C59.4644 85.815 60.9486 85.5661 62.3807 85.8435C63.8129 86.121 65.0967 86.9062 65.9961 88.0547C68.3854 85.5623 70.1346 82.5277 71.0938 79.2109C69.6477 79.0083 68.3235 78.2898 67.3653 77.188C66.4071 76.0861 65.8794 74.6751 65.8794 73.2148C65.8794 71.7546 66.4071 70.3436 67.3653 69.2417C68.3235 68.1399 69.6477 67.4214 71.0938 67.2188C70.1208 63.9082 68.3718 60.8776 65.9922 58.3789ZM54.4648 80.0899C53.1063 80.8774 51.5448 81.2444 49.9777 81.1442C48.4106 81.0441 46.9084 80.4814 45.6612 79.5274C44.4139 78.5733 43.4777 77.2707 42.971 75.7844C42.4642 74.2982 42.4097 72.695 42.8143 71.1777C43.2189 69.6604 44.0645 68.2973 45.244 67.2607C46.4235 66.2241 47.884 65.5606 49.4407 65.3542C50.9973 65.1479 52.5802 65.4079 53.9891 66.1013C55.398 66.7948 56.5695 67.8906 57.3555 69.25C58.4094 71.0708 58.6969 73.2357 58.1548 75.2685C57.6128 77.3013 56.2855 79.0356 54.4648 80.0899Z" fill="#555555"/>
<path d="M134.77 51.7695H84.3125V128.301H134.77V51.7695Z" fill="#F9F9F9"/>
<path d="M125.539 73.8047H94.281V79.1016H125.539V73.8047Z" fill="#E3E4E5"/>
<path d="M116.406 87.6484H94.281V92.9453H116.406V87.6484Z" fill="#E3E4E5"/>
<path d="M105.047 101.492H94.281V106.789H105.047V101.492Z" fill="#E3E4E5"/>
<path d="M103.312 60.9727H94.281V66.2695H103.312V60.9727Z" fill="#E3E4E5"/>
<path d="M125.539 60.9727H111.094V66.2695H125.539V60.9727Z" fill="#E3E4E5"/>
<path d="M71.0588 106.789H29.9377V128.297H71.0588V106.789Z" fill="#F9F9F9"/>
<path d="M152.668 114.949V134.168C152.669 135.285 152.45 136.391 152.023 137.423C151.596 138.455 150.97 139.392 150.181 140.182C149.391 140.972 148.454 141.598 147.422 142.026C146.39 142.453 145.284 142.672 144.168 142.672H98.1208V128.352C98.125 124.798 99.5389 121.39 102.052 118.878C104.566 116.365 107.973 114.952 111.527 114.949H152.668Z" fill="#ECEDEE" style="mix-blend-mode:multiply"/>
<path d="M144.164 143.844H21.0269C18.4604 143.843 15.9991 142.823 14.1835 141.009C12.3679 139.195 11.3465 136.735 11.3434 134.168V22.582C11.3475 20.0165 12.3696 17.5574 14.1851 15.7448C16.0007 13.9321 18.4614 12.9141 21.0269 12.9141H144.164C146.729 12.9141 149.188 13.9324 151.003 15.7453C152.817 17.5581 153.837 20.0172 153.839 22.582V134.168C153.837 136.734 152.817 139.193 151.003 141.008C149.189 142.822 146.729 143.842 144.164 143.844ZM21.0269 15.2578C19.0827 15.2568 17.2175 16.0276 15.8413 17.4009C14.465 18.7743 13.6902 20.6378 13.6871 22.582V134.168C13.6892 136.113 14.4634 137.978 15.8397 139.353C17.2159 140.728 19.0817 141.5 21.0269 141.5H144.164C146.108 141.499 147.972 140.726 149.347 139.351C150.722 137.977 151.495 136.112 151.496 134.168V22.582C151.494 20.6402 150.721 18.7784 149.348 17.4053C147.975 16.0322 146.113 15.2599 144.171 15.2578H21.0269Z" fill="white"/>
<path d="M167.141 121.875H110.953C107.691 121.875 105.047 124.519 105.047 127.781V164.91C105.047 168.172 107.691 170.816 110.953 170.816H167.141C170.403 170.816 173.047 168.172 173.047 164.91V127.781C173.047 124.519 170.403 121.875 167.141 121.875Z" fill="#F9F9F9"/>
<path d="M167.141 171.988H110.953C109.077 171.986 107.277 171.24 105.95 169.913C104.623 168.586 103.877 166.787 103.875 164.91V127.781C103.877 125.905 104.623 124.106 105.95 122.779C107.277 121.452 109.077 120.705 110.953 120.703H167.141C169.018 120.704 170.817 121.45 172.144 122.777C173.472 124.105 174.218 125.904 174.219 127.781V164.91C174.217 166.787 173.47 168.586 172.143 169.913C170.816 171.24 169.017 171.986 167.141 171.988ZM110.953 123.047C109.698 123.048 108.494 123.547 107.607 124.435C106.719 125.322 106.22 126.526 106.219 127.781V164.91C106.221 166.165 106.72 167.368 107.608 168.256C108.495 169.143 109.698 169.642 110.953 169.645H167.141C168.396 169.644 169.6 169.144 170.487 168.257C171.375 167.369 171.874 166.165 171.875 164.91V127.781C171.875 126.526 171.376 125.321 170.488 124.434C169.6 123.546 168.396 123.047 167.141 123.047H110.953Z" fill="white"/>
<path d="M125.238 131.52H120.113V160.957H125.238V131.52Z" fill="#0F62FE"/>
<path d="M128.422 134.629H116.937V139.754H128.422V134.629Z" fill="#0F62FE"/>
<path d="M142.152 131.52H137.027V160.957H142.152V131.52Z" fill="#0F62FE"/>
<path d="M145.332 151.387H133.848V156.512H145.332V151.387Z" fill="#0F62FE"/>
<path d="M159.062 131.52H153.938V160.957H159.062V131.52Z" fill="#0F62FE"/>
<path d="M162.246 138.613H150.761V143.738H162.246V138.613Z" fill="#0F62FE"/>
<path d="M23.2109 162.238C22.2976 162.239 21.4045 161.969 20.6447 161.462C19.8849 160.955 19.2925 160.234 18.9424 159.391C18.5924 158.547 18.5004 157.619 18.6781 156.723C18.8558 155.827 19.2952 155.004 19.9408 154.358C20.5864 153.712 21.4091 153.271 22.3048 153.093C23.2006 152.914 24.1291 153.006 24.9731 153.355C25.817 153.704 26.5383 154.296 27.0458 155.056C27.5533 155.815 27.8242 156.708 27.8242 157.621C27.8232 158.845 27.3369 160.018 26.4721 160.883C25.6073 161.749 24.4345 162.236 23.2109 162.238ZM23.2109 155.352C22.761 155.351 22.3209 155.484 21.9464 155.733C21.572 155.983 21.28 156.338 21.1074 156.753C20.9348 157.169 20.8895 157.626 20.9771 158.068C21.0647 158.509 21.2813 158.914 21.5995 159.233C21.9177 159.551 22.3231 159.767 22.7645 159.855C23.2058 159.943 23.6633 159.897 24.0788 159.725C24.4944 159.552 24.8494 159.26 25.099 158.886C25.3485 158.511 25.4812 158.071 25.4805 157.621C25.4815 157.322 25.4236 157.026 25.31 156.75C25.1965 156.473 25.0295 156.222 24.8187 156.01C24.6079 155.798 24.3574 155.63 24.0816 155.515C23.8057 155.4 23.5098 155.34 23.2109 155.34V155.352Z" fill="white"/>
<path d="M3.60156 149.328C2.88924 149.328 2.19292 149.117 1.60064 148.721C1.00837 148.325 0.546748 147.763 0.274154 147.105C0.00156011 146.447 -0.0697623 145.723 0.0692048 145.024C0.208172 144.325 0.551187 143.684 1.05487 143.18C1.55856 142.676 2.2003 142.333 2.89893 142.194C3.59757 142.055 4.32172 142.127 4.97982 142.399C5.63792 142.672 6.20041 143.133 6.59615 143.726C6.9919 144.318 7.20313 145.014 7.20313 145.727C7.20209 146.681 6.82231 147.597 6.14711 148.272C5.47191 148.947 4.55644 149.327 3.60156 149.328ZM3.60156 144.469C3.35279 144.469 3.10961 144.543 2.90276 144.681C2.69591 144.819 2.5347 145.015 2.4395 145.245C2.3443 145.475 2.31939 145.728 2.36792 145.972C2.41645 146.216 2.53625 146.44 2.71216 146.616C2.88806 146.792 3.11219 146.912 3.35618 146.96C3.60017 147.009 3.85307 146.984 4.08291 146.889C4.31274 146.793 4.50919 146.632 4.6474 146.425C4.78561 146.219 4.85938 145.975 4.85938 145.727C4.85835 145.393 4.7255 145.074 4.48983 144.838C4.25417 144.603 3.93484 144.47 3.60156 144.469Z" fill="white"/>
<path d="M159.809 4.6702L155.042 9.43848L156.7 11.0955L161.466 6.32719L159.809 4.6702Z" fill="white"/>
<path d="M151.488 0H149.145V6.74219H151.488V0Z" fill="white"/>
<path d="M166.336 14.2539H159.594V16.5977H166.336V14.2539Z" fill="white"/>
<path d="M165.949 114.875H163.605V112.531H165.949V114.875ZM165.949 108.625H163.605V106.281H165.949V108.625ZM165.949 102.375H163.605V100.031H165.949V102.375ZM165.949 96.125H163.605V93.7812H165.949V96.125ZM165.949 89.875H163.605V87.5312H165.949V89.875ZM165.949 83.625H163.605V81.2812H165.949V83.625ZM165.949 77.375H163.605V75.0312H165.949V77.375ZM165.949 71.125H163.605V68.7812H165.949V71.125ZM165.949 64.875H163.605V62.5312H165.949V64.875Z" fill="white"/>
<path d="M146.645 64.793H144.301V62.4492H146.645V64.793ZM140.395 64.793H138.051V62.4492H140.395V64.793Z" fill="#555555"/>
<path d="M159.543 62.4492H157.199V64.793H159.543V62.4492Z" fill="white"/>
<path d="M62.4651 114.895H38.5315V120.191H62.4651V114.895Z" fill="#E3E4E5"/>
</svg>
